<svg xmlns="http://www.w3.org/2000/svg" viewBox="0 0 140 140">
  <defs>
    <style>
      .cls-1 {
        fill: #a1d884;
      }

      .cls-2 {
        fill: #222;
      }
    </style>
  </defs>
  <g id="Ebene_2" data-name="Ebene 2">
    <g id="Ebene_4" data-name="Ebene 4">
      <rect class="cls-1" width="140" height="140"/>
      <path class="cls-2" d="M102.62285,108.40943H37.37676a5.79276,5.79276,0,0,1-5.78613-5.78614V37.3772a5.793,5.793,0,0,1,5.78613-5.78711h65.24609A5.79317,5.79317,0,0,1,108.41,37.3772v65.24609A5.793,5.793,0,0,1,102.62285,108.40943Zm-63.03222-8H100.41V39.59009H39.59063Z"/>
      <g>
        <rect class="cls-1" x="73.58651" y="26.31758" width="40.43804" height="40.43804" rx="3.94384"/>
        <path class="cls-2" d="M110.08086,70.75611H77.53008a7.9527,7.9527,0,0,1-7.94336-7.94434V30.261a7.95249,7.95249,0,0,1,7.94336-7.94336h32.55078a7.95249,7.95249,0,0,1,7.94336,7.94336V62.81177A7.9527,7.9527,0,0,1,110.08086,70.75611Zm0-8v0ZM110.02422,30.261l-32.49414.05664.05664,32.49414,32.4375-.05566Z"/>
      </g>
      <g>
        <path class="cls-2" d="M94.63577,49.15863a8.80622,8.80622,0,0,0-5.11695-1.65225c-4.1715,0-8.07256,2.94762-8.07256,7.05836H91.72964A6.65715,6.65715,0,0,1,94.63577,49.15863Z"/>
        <circle class="cls-2" cx="88.43363" cy="42.20074" r="4.49226"/>
        <path class="cls-2" d="M106.1648,54.56474c0-4.00313-3.90107-7.05836-8.07257-7.05836a8.87157,8.87157,0,0,0-5.16634,1.65225,6.712,6.712,0,0,1,2.95553,5.40611"/>
        <path class="cls-2" d="M99.06718,46.693a4.49227,4.49227,0,1,0-4.49227-4.49226A4.49228,4.49228,0,0,0,99.06718,46.693Z"/>
      </g>
    </g>
  </g>
</svg>
